HIERARCHY
ROOT Hips
{
	OFFSET 0.000000 0.000000 0.000000
	CHANNELS 6 Xposition Yposition Zposition Xrotation Yrotation Zrotation
	JOINT LeftUpLeg_virtual
	{
		OFFSET 0.000000 0.000000 0.000000
		CHANNELS 3 Xrotation Yrotation Zrotation
		JOINT LeftUpLeg
		{
			OFFSET 15.427100 -6.655098 0.678600
			CHANNELS 3 Xrotation Yrotation Zrotation
			JOINT LeftLeg
			{
				OFFSET 4.081073 -39.591068 13.024000
				CHANNELS 3 Xrotation Yrotation Zrotation
				JOINT LeftFoot
				{
					OFFSET -4.081074 -37.707932 -15.979700
					CHANNELS 3 Xrotation Yrotation Zrotation
					JOINT LeftToeBase
					{
						OFFSET 5.346399 -15.068900 20.645000
						CHANNELS 3 Xrotation Yrotation Zrotation
						JOINT LeftToe_End
						{
							OFFSET 2.754700 0.931300 11.300900
							CHANNELS 3 Xrotation Yrotation Zrotation
							End Site
							{
								OFFSET 0 0 0
							}
						}
					}
				}
			}
		}
	}
	JOINT RightUpLeg_virtual
	{
		OFFSET 0.000000 0.000000 0.000000
		CHANNELS 3 Xrotation Yrotation Zrotation
		JOINT RightUpLeg
		{
			OFFSET -15.569500 -6.655098 0.678600
			CHANNELS 3 Xrotation Yrotation Zrotation
			JOINT RightLeg
			{
				OFFSET -4.081825 -39.591045 13.023800
				CHANNELS 3 Xrotation Yrotation Zrotation
				JOINT RightFoot
				{
					OFFSET 4.081824 -37.707954 -15.979600
					CHANNELS 3 Xrotation Yrotation Zrotation
					JOINT RightToeBase
					{
						OFFSET -5.346400 -15.068900 20.645000
						CHANNELS 3 Xrotation Yrotation Zrotation
						JOINT RightToe_End
						{
							OFFSET -2.754700 0.931300 11.300900
							CHANNELS 3 Xrotation Yrotation Zrotation
							End Site
							{
								OFFSET 0 0 0
							}
						}
					}
				}
			}
		}
	}
	JOINT Spine_virtual
	{
		OFFSET 0.000000 0.000000 0.000000
		CHANNELS 3 Xrotation Yrotation Zrotation
		JOINT Spine
		{
			OFFSET -0.279200 12.230698 -2.892100
			CHANNELS 3 Xrotation Yrotation Zrotation
			JOINT Spine1
			{
				OFFSET -0.232667 10.192268 -1.242267
				CHANNELS 3 Xrotation Yrotation Zrotation
				JOINT Spine1_split
				{
					OFFSET -0.232667 10.192268 -1.242267
					CHANNELS 3 Xrotation Yrotation Zrotation
					JOINT Spine2
					{
						OFFSET -0.232667 10.192268 -1.242267
						CHANNELS 3 Xrotation Yrotation Zrotation
						JOINT Neck_virtual
						{
							OFFSET 0.000000 0.000000 0.000000
							CHANNELS 3 Xrotation Yrotation Zrotation
							JOINT Neck
							{
								OFFSET -0.418800 17.814194 8.416900
								CHANNELS 3 Xrotation Yrotation Zrotation
								JOINT Head
								{
									OFFSET 0.000000 7.031097 3.806800
									CHANNELS 3 Xrotation Yrotation Zrotation
									JOINT HeadTop_End
									{
										OFFSET 0.000000 24.646606 12.978600
										CHANNELS 3 Xrotation Yrotation Zrotation
										End Site
										{
											OFFSET 0 0 0
										}
									}
								}
							}
						}
						JOINT LeftShoulder_virtual
						{
							OFFSET 0.000000 0.000000 0.000000
							CHANNELS 3 Xrotation Yrotation Zrotation
							JOINT LeftShoulder
							{
								OFFSET 8.476499 7.247704 -3.868750
								CHANNELS 3 Xrotation Yrotation Zrotation
								JOINT LeftShoulder_split
								{
									OFFSET 8.476499 7.247704 -3.868750
									CHANNELS 3 Xrotation Yrotation Zrotation
									JOINT LeftArm
									{
										OFFSET 9.308998 -2.777710 0.208600
										CHANNELS 3 Xrotation Yrotation Zrotation
										JOINT LeftForeArm
										{
											OFFSET 29.972298 0.000000 0.000000
											CHANNELS 3 Xrotation Yrotation Zrotation
											JOINT LeftHand
											{
												OFFSET 26.026505 0.000000 0.000000
												CHANNELS 3 Xrotation Yrotation Zrotation
												End Site
												{
													OFFSET 0 0 0
												}
											}
										}
									}
								}
							}
						}
						JOINT RightShoulder_virtual
						{
							OFFSET 0.000000 0.000000 0.000000
							CHANNELS 3 Xrotation Yrotation Zrotation
							JOINT RightShoulder
							{
								OFFSET -7.570500 7.247704 -3.868750
								CHANNELS 3 Xrotation Yrotation Zrotation
								JOINT RightShoulder_split
								{
									OFFSET -7.570500 7.247704 -3.868750
									CHANNELS 3 Xrotation Yrotation Zrotation
									JOINT RightArm
									{
										OFFSET -9.308998 -2.777710 0.208500
										CHANNELS 3 Xrotation Yrotation Zrotation
										JOINT RightForeArm
										{
											OFFSET -29.972300 0.000000 0.000000
											CHANNELS 3 Xrotation Yrotation Zrotation
											JOINT RightHand
											{
												OFFSET -26.026505 0.000000 0.000000
												CHANNELS 3 Xrotation Yrotation Zrotation
												End Site
												{
													OFFSET 0 0 0
												}
											}
										}
									}
								}
							}
						}
					}
				}
			}
		}
	}
}
MOTION
Frames: 7
Frame Time: 0.03333333
-3.292547 57.202110 10.565979 0.000000 0.000000 0.000000 34.602667 -57.750561 30.650949 -62.865847 -6.519076 35.458251 82.234624 -19.783826 -7.400829 -30.444667 0.673200 -8.043362 -4.240084 -1.453187 0.956780 0.000000 0.000000 0.000000 38.587779 -62.481942 35.767481 -57.445579 -4.559653 -44.978964 78.773753 20.598718 9.164989 -42.211638 -4.942198 10.813071 -1.588837 1.357333 1.556430 0.000000 0.000000 0.000000 38.276715 -55.215294 31.663012 7.246004 -1.230741 -1.453512 4.214736 -2.936821 -2.705678 1.151158 0.488115 0.725950 0.000000 0.000000 0.000000 3.538722 -3.411793 -2.078833 -3.989985 14.328333 -6.869044 -34.638498 34.277168 5.007378 0.000000 0.000000 0.000000 3.682106 -3.430724 -2.409187 5.061268 -9.502017 -6.383271 -4.436173 -3.544310 0.898457 -59.421765 3.119906 -22.769122 20.018076 -21.902446 16.526315 0.000000 0.000000 0.000000 3.895002 -3.183735 -2.277063 5.850072 8.201175 13.423413 4.329345 4.289004 -1.085281 -10.144165 -3.790024 53.939216 -16.900101 40.295609 8.362746 0.000000 0.000000 0.000000 
-3.046419 53.663956 10.367958 0.000000 0.000000 0.000000 36.586403 -57.018856 32.017266 -65.604445 -10.950956 37.531910 86.217703 -22.853851 -9.455494 -31.824221 0.034945 -7.564879 -4.665903 -1.519035 0.700424 0.000000 0.000000 0.000000 40.538375 -61.522184 37.025004 -61.232134 -2.766109 -48.687805 82.447418 23.673705 10.937125 -43.044286 -3.608241 9.582504 -2.193148 1.311081 1.807170 0.000000 0.000000 0.000000 40.126279 -54.643726 32.830592 6.722711 -1.222034 -1.240310 4.418094 -2.738552 -2.641732 1.186707 0.337837 0.719353 0.000000 0.000000 0.000000 3.788527 -3.236771 -2.029145 -2.738956 14.877412 -7.931792 -35.067031 33.038906 4.321093 0.000000 0.000000 0.000000 3.902608 -3.251727 -2.392332 5.418576 -9.799310 -6.309306 -4.156753 -3.457913 1.123232 -60.736057 1.789632 -22.911069 21.063320 -21.571097 16.541227 0.000000 0.000000 0.000000 4.136354 -2.981077 -2.209265 6.198476 8.379360 13.732790 4.404741 4.253001 -1.210030 -9.775625 -2.143813 52.224439 -17.518370 41.991743 9.039551 0.000000 0.000000 0.000000 
-2.796786 50.160591 10.237644 0.000000 0.000000 0.000000 38.038348 -56.329137 32.876935 -67.898583 -15.600359 39.890501 89.676730 -26.172918 -11.401903 -32.637560 -0.656746 -7.293359 -5.443612 -1.513863 0.442536 0.000000 0.000000 0.000000 41.882474 -60.574386 37.657179 -64.784269 -0.186282 -52.605724 85.874534 26.684468 13.039814 -42.962781 -2.632144 8.381113 -2.910739 1.199015 1.980767 0.000000 0.000000 0.000000 41.331643 -54.185523 33.495442 6.319628 -1.179985 -1.074238 4.615210 -2.496604 -2.574194 1.111531 0.160331 0.797859 0.000000 0.000000 0.000000 4.053059 -3.001138 -1.980760 -1.290915 15.389586 -8.971577 -34.979236 32.043447 3.492483 0.000000 0.000000 0.000000 4.148731 -3.017631 -2.369778 5.788997 -9.878386 -6.263819 -3.881591 -3.367445 1.236586 -61.826415 0.657738 -23.242510 22.221442 -21.273463 16.431378 0.000000 0.000000 0.000000 4.389046 -2.730847 -2.150418 6.572614 8.490357 14.061731 4.494594 4.199544 -1.244377 -9.173344 -0.667575 50.241458 -17.810975 43.020042 9.559126 0.000000 0.000000 0.000000 
-2.559950 46.859375 10.095829 0.000000 0.000000 0.000000 38.975665 -55.627403 33.271460 -69.737604 -20.143771 42.542530 92.439452 -29.479636 -13.247546 -32.746123 -1.366298 -7.163249 -6.611179 -1.457516 0.235275 0.000000 0.000000 0.000000 42.601174 -59.638726 37.745801 -67.947412 3.102825 -56.709415 89.010356 29.671728 15.311964 -41.672091 -2.047167 7.490324 -4.115314 1.038077 2.111451 0.000000 0.000000 0.000000 42.002419 -53.770439 33.755567 5.999319 -1.102109 -0.964064 4.807099 -2.252341 -2.539109 0.877500 -0.167227 0.898268 0.000000 0.000000 0.000000 4.314087 -2.738959 -1.959507 0.335157 15.903180 -9.967121 -34.533522 31.224210 2.671705 0.000000 0.000000 0.000000 4.411342 -2.766308 -2.365341 6.174208 -9.713568 -6.238746 -3.598497 -3.277772 1.179857 -62.726019 -0.294193 -23.688025 23.498450 -20.927940 16.231962 0.000000 0.000000 0.000000 4.633804 -2.477034 -2.128362 6.976214 8.590929 14.519877 4.643817 4.153730 -1.173364 -8.526541 0.415575 48.133514 -17.731630 43.565310 9.895137 0.000000 0.000000 0.000000 
-2.388560 43.866764 10.069103 0.000000 0.000000 0.000000 39.435057 -54.846405 33.263359 -71.191779 -24.348593 45.337430 94.373352 -32.516420 -15.025093 -32.228674 -2.033298 -7.056104 -7.876984 -1.373376 0.056276 0.000000 0.000000 0.000000 42.809208 -58.612271 37.394838 -70.522161 6.995425 -60.834473 91.702632 32.638219 17.565175 -39.233549 -1.783245 6.946666 -5.565942 0.870097 2.252084 0.000000 0.000000 0.000000 42.213185 -53.334352 33.672218 5.707726 -0.999835 -0.892217 4.998831 -2.040227 -2.540724 0.704084 -0.571866 1.027541 0.000000 0.000000 0.000000 4.563619 -2.496010 -1.970230 2.071627 16.446793 -10.923101 -33.942075 30.512859 1.989023 0.000000 0.000000 0.000000 4.688215 -2.535074 -2.377132 6.586566 -9.348183 -6.236288 -3.310591 -3.237380 0.921787 -63.410780 -1.123834 -24.217460 24.925934 -20.636751 16.053101 0.000000 0.000000 0.000000 4.881297 -2.261299 -2.158912 7.407760 8.750098 15.178222 4.817368 4.154723 -1.073780 -7.994967 1.056925 45.921971 -17.291022 43.857037 10.063670 0.000000 0.000000 0.000000 
-2.294263 41.311729 10.037327 0.000000 0.000000 0.000000 39.526383 -53.980095 32.970662 -72.345753 -28.070249 48.082025 95.477684 -35.114303 -16.709648 -31.127030 -2.592066 -7.156312 -8.998652 -1.261123 -0.108996 0.000000 0.000000 0.000000 42.608998 -57.476097 36.706792 -72.340569 11.221801 -64.794480 93.875042 35.514504 19.675830 -36.088141 -1.718340 6.636487 -6.793995 0.728322 2.477329 0.000000 0.000000 0.000000 42.200836 -52.866839 33.420631 5.431319 -0.885673 -0.819836 5.204826 -1.890152 -2.567428 0.633872 -1.024049 1.199989 0.000000 0.000000 0.000000 4.810552 -2.304076 -2.002873 3.853092 17.049209 -11.861550 -33.399376 29.953105 1.503432 0.000000 0.000000 0.000000 4.993570 -2.354442 -2.397255 7.022362 -8.825801 -6.275384 -3.033550 -3.323382 0.576491 -63.941595 -1.840004 -24.799951 26.530540 -20.483783 15.987509 0.000000 0.000000 0.000000 5.145357 -2.109528 -2.222362 7.856855 9.047488 16.051689 4.925589 4.179303 -1.017514 -7.607753 1.374067 43.617151 -16.501759 43.991083 10.042639 0.000000 0.000000 0.000000 
-2.292713 39.231304 9.983837 0.000000 0.000000 0.000000 39.262431 -52.980398 32.406939 -73.406222 -31.231160 50.472475 95.849363 -37.192832 -18.268400 -29.447271 -3.017611 -7.586837 -9.926235 -1.119537 -0.286810 0.000000 0.000000 0.000000 41.913896 -56.126103 35.622944 -73.359298 15.449762 -68.502071 95.542448 38.178275 21.530698 -32.531996 -1.730695 6.479304 -7.825812 0.638907 2.796677 0.000000 0.000000 0.000000 42.085495 -52.332547 33.068894 5.147387 -0.786552 -0.714224 5.441090 -1.798767 -2.595059 0.702044 -1.414104 1.260883 0.000000 0.000000 0.000000 5.066149 -2.175451 -2.037530 5.557128 17.692292 -12.788352 -33.063781 29.555615 1.242316 0.000000 0.000000 0.000000 5.310711 -2.233907 -2.409978 7.466908 -8.226804 -6.394666 -2.868048 -3.432263 0.218994 -64.442350 -2.512213 -25.428557 28.305576 -20.489126 16.089088 0.000000 0.000000 0.000000 5.420234 -2.023769 -2.281720 8.303206 9.530000 17.081483 4.967245 4.253339 -1.044466 -7.297309 1.519395 41.263567 -15.405787 43.974513 9.800742 0.000000 0.000000 0.000000 
